# xmcd
#
# Track frame offsets: 
#        150
#        14679
#        29109
#        47443
#        61586
#        83405
#        100032
#        117452
#        134775
#        153847
#        173383
#        187179
#        204054
#        219693
#        238557
#
# Disc length: 3372 seconds
#
# Revision: 0
# Processed by: cddbd v1.5.2PL0 Copyright (c) Steve Scherf et al.
# Submitted via: ExactAudioCopyFreeDBPlugin 1.0
#
DISCID=c30d2a0f
DTITLE=Various Artist - Hot-Taw-Mighty 3 - Still Cookin'
DYEAR=2003
DGENRE=Blues
TTITLE0=Sly Johnson - Dangerous
TTITLE1=Walter T Higgs - I Have A Dream
TTITLE2=The Carpenter Ants - Wrapped Up, Tied Up, Tangled Up
TTITLE3=Paul Carrack - Satisfy My Soul
TTITLE4=S.E. Willis - Halfway Out The Door
TTITLE5=Jamie Wood - Aeroplane Blues
TTITLE6=Richard Darbyshire - This I Swear
TTITLE7=The West Coast Playboy - Mad About It
TTITLE8=Earl Thomas - Lost Alone
TTITLE9=Jumpin' Joz Band - Knock Me A Kiss
TTITLE10=Blueswagon - Talkin' Woman Blues
TTITLE11=Mickey Champion - Lovin' Jim
TTITLE12=Richard Darbyshire - Whever Love Is Found
TTITLE13=Fathead - Hard Times
TTITLE14=The West Coast Playboys - Voodoo, Voodoo
EXTD=
EXTT0=
EXTT1=
EXTT2=
EXTT3=
EXTT4=
EXTT5=
EXTT6=
EXTT7=
EXTT8=
EXTT9=
EXTT10=
EXTT11=
EXTT12=
EXTT13=
EXTT14=
PLAYORDER=
